<svg viewBox="0 0 165.92 150.83" xmlns="http://www.w3.org/2000/svg"><path fill="#C81A54" d="M60.333 0H30.167v15.083H15.083v15.084H0v45.25h15.083V90.5h15.084v15.083H45.25v15.084h15.083v15.083h15.084v15.083H90.5V135.75h15.083v-15.083h15.084v-15.084h15.083V90.5h15.083V75.417h15.084v-45.25h-15.084V15.083H135.75V0h-30.167v15.083H90.5v15.084H75.417V15.083H60.333V0Zm0 15.083v15.084h15.084V45.25H90.5V30.167h15.083V15.083h30.167v15.084h15.083v45.25H135.75V90.5h-15.083v15.083h-15.084v15.084H90.5v15.083H75.417v-15.083H60.333v-15.084H45.25V90.5H30.167V75.417H15.083v-45.25h15.084V15.083h30.166Z"/><mask id="a" width="146" height="65" x="10.458" y="31.917" fill="#000" maskUnits="userSpaceOnUse"><path fill="#fff" d="M10.458 31.917h146v65h-146z"/><path d="M12.502 34.466h23.433v4.453h4.453v4.526h4.526v41.39h-4.526v4.527h-4.453v4.599H12.502V34.466Zm22.63 54.093v-4.453h4.526V44.248h-4.526v-4.526H17.904v48.837h17.228Zm13.87-8.98h4.6V61.477h4.525V47.97h4.453V34.466h5.33V47.97h4.525v13.505h4.453V79.58h4.526v14.38h-5.256V80.31H54.404v13.65h-5.402V79.58Zm22.63-4.525V62.279h-4.526V48.774h-3.723v13.505h-4.526v12.775h12.775Zm27.448-8.25h-4.453v-9.051h-4.526v-8.98h-4.599V34.467h5.402V47.97h4.453v9.052h4.526v8.979h3.723v-8.98h4.526v-9.051h4.526V34.466h5.256v14.308h-4.526v8.979h-4.453v9.052h-4.526V93.96H99.08V66.805Zm27.521 18.032h-4.599v-9.782h5.402v9.052h4.453v4.453h12.775v-4.453h4.526V71.33h-4.526v-4.526h-13.505v-4.526h-4.526v-4.526h-4.599V43.445h4.599v-4.526h4.526v-4.453h14.308v4.453h4.453v4.526h4.526V53.3h-5.256v-9.052h-4.526v-4.526h-12.775v4.526h-4.453v12.775h4.453v4.453h13.578v4.526h4.453v4.526h4.526v14.308h-4.526v4.526h-4.453v4.599h-14.308v-4.6h-4.526v-4.525Z"/></mask><path fill="#fff" d="M12.502 34.466h23.433v4.453h4.453v4.526h4.526v41.39h-4.526v4.527h-4.453v4.599H12.502V34.466Zm22.63 54.093v-4.453h4.526V44.248h-4.526v-4.526H17.904v48.837h17.228Zm13.87-8.98h4.6V61.477h4.525V47.97h4.453V34.466h5.33V47.97h4.525v13.505h4.453V79.58h4.526v14.38h-5.256V80.31H54.404v13.65h-5.402V79.58Zm22.63-4.525V62.279h-4.526V48.774h-3.723v13.505h-4.526v12.775h12.775Zm27.448-8.25h-4.453v-9.051h-4.526v-8.98h-4.599V34.467h5.402V47.97h4.453v9.052h4.526v8.979h3.723v-8.98h4.526v-9.051h4.526V34.466h5.256v14.308h-4.526v8.979h-4.453v9.052h-4.526V93.96H99.08V66.805Zm27.521 18.032h-4.599v-9.782h5.402v9.052h4.453v4.453h12.775v-4.453h4.526V71.33h-4.526v-4.526h-13.505v-4.526h-4.526v-4.526h-4.599V43.445h4.599v-4.526h4.526v-4.453h14.308v4.453h4.453v4.526h4.526V53.3h-5.256v-9.052h-4.526v-4.526h-12.775v4.526h-4.453v12.775h4.453v4.453h13.578v4.526h4.453v4.526h4.526v14.308h-4.526v4.526h-4.453v4.599h-14.308v-4.6h-4.526v-4.525Z"/><path fill="#000" d="M12.502 34.466v-2h-2v2h2Zm23.433 0h2v-2h-2v2Zm0 4.453h-2v2h2v-2Zm4.453 0h2v-2h-2v2Zm0 4.526h-2v2h2v-2Zm4.526 0h2v-2h-2v2Zm0 41.39v2h2v-2h-2Zm-4.526 0v-2h-2v2h2Zm0 4.527v2h2v-2h-2Zm-4.453 0v-2h-2v2h2Zm0 4.599v2h2v-2h-2Zm-23.433 0h-2v2h2v-2Zm22.63-5.402v2h2v-2h-2Zm0-4.453v-2h-2v2h2Zm4.526 0v2h2v-2h-2Zm0-39.858h2v-2h-2v2Zm-4.526 0h-2v2h2v-2Zm0-4.526h2v-2h-2v2Zm-17.228 0v-2h-2v2h2Zm0 48.837h-2v2h2v-2Zm-5.402-52.093h23.433v-4H12.502v4Zm21.433-2v4.453h4v-4.453h-4Zm2 6.453h4.453v-4h-4.453v4Zm2.453-2v4.526h4v-4.526h-4Zm2 6.526h4.526v-4h-4.526v4Zm2.526-2v41.39h4v-41.39h-4Zm2 39.39h-4.526v4h4.526v-4Zm-6.526 2v4.527h4v-4.526h-4Zm2 2.527h-4.453v4h4.453v-4Zm-6.453 2v4.599h4v-4.6h-4Zm2 2.599H12.502v4h23.433v-4Zm-21.433 2V34.466h-4V93.96h4Zm22.63-5.402v-4.453h-4v4.453h4Zm-2-2.453h4.526v-4h-4.526v4Zm6.526-2V44.248h-4v39.858h4Zm-2-41.858h-4.526v4h4.526v-4Zm-2.526 2v-4.526h-4v4.526h4Zm-2-6.526H17.904v4h17.228v-4Zm-19.228 2v48.837h4V39.722h-4Zm2 50.837h17.228v-4H17.904v4Zm31.098-10.98v-2h-2v2h2Zm4.6 0v2h2v-2h-2Zm0-18.103v-2h-2v2h2Zm4.525 0v2h2v-2h-2Zm0-13.505v-2h-2v2h2Zm4.453 0v2h2v-2h-2Zm0-13.505v-2h-2v2h2Zm5.33 0h2v-2h-2v2Zm0 13.505h-2v2h2v-2Zm4.525 0h2v-2h-2v2Zm0 13.505h-2v2h2v-2Zm4.453 0h2v-2h-2v2Zm0 18.104h-2v2h2v-2Zm4.526 0h2v-2h-2v2Zm0 14.38v2h2v-2h-2Zm-5.256 0h-2v2h2v-2Zm0-13.65h2v-2h-2v2Zm-21.754 0v-2h-2v2h2Zm0 13.65v2h2v-2h-2Zm-5.402 0h-2v2h2v-2Zm22.63-18.906v2h2v-2h-2Zm0-12.775h2v-2h-2v2Zm-4.526 0h-2v2h2v-2Zm0-13.505h2v-2h-2v2Zm-3.723 0v-2h-2v2h2Zm0 13.505v2h2v-2h-2Zm-4.526 0v-2h-2v2h2Zm0 12.775h-2v2h2v-2Zm-9.855 6.526h4.6v-4h-4.6v4Zm6.6-2V61.476h-4V79.58h4Zm-2-16.104h4.525v-4h-4.526v4Zm6.525-2V47.97h-4v13.505h4Zm-2-11.505h4.453v-4h-4.453v4Zm6.453-2V34.466h-4V47.97h4Zm-2-11.505h5.33v-4h-5.33v4Zm3.33-2V47.97h4V34.466h-4Zm2 15.505h4.525v-4H67.91v4Zm2.525-2v13.505h4V47.97h-4Zm2 15.505h4.453v-4h-4.453v4Zm2.453-2V79.58h4V61.476h-4Zm2 20.104h4.526v-4h-4.526v4Zm2.526-2v14.38h4V79.58h-4Zm2 12.38h-5.256v4h5.256v-4Zm-3.256 2V80.31h-4v13.65h4Zm-2-15.65H54.404v4h21.754v-4Zm-23.754 2v13.65h4V80.31h-4Zm2 11.65h-5.402v4h5.402v-4Zm-3.402 2V79.58h-4v14.38h4Zm22.63-18.906V62.279h-4v12.775h4Zm-2-14.775h-4.526v4h4.526v-4Zm-2.526 2V48.774h-4v13.505h4Zm-2-15.505h-3.723v4h3.723v-4Zm-5.723 2v13.505h4V48.774h-4Zm2 11.505h-4.526v4h4.526v-4Zm-6.526 2v12.775h4V62.279h-4Zm2 14.775h12.775v-4H58.857v4Zm40.223-10.25h2v-2h-2v2Zm-4.453 0h-2v2h2v-2Zm0-9.051h2v-2h-2v2Zm-4.526 0h-2v2h2v-2Zm0-8.98h2v-2h-2v2Zm-4.599 0h-2v2h2v-2Zm0-14.307v-2h-2v2h2Zm5.402 0h2v-2h-2v2Zm0 13.505h-2v2h2v-2Zm4.453 0h2v-2h-2v2Zm0 9.052h-2v2h2v-2Zm4.526 0h2v-2h-2v2Zm0 8.979h-2v2h2v-2Zm3.723 0v2h2v-2h-2Zm0-8.98v-2h-2v2h2Zm4.526 0v2h2v-2h-2Zm0-9.051v-2h-2v2h2Zm4.526 0v2h2v-2h-2Zm0-13.505v-2h-2v2h2Zm5.256 0h2v-2h-2v2Zm0 14.308v2h2v-2h-2Zm-4.526 0v-2h-2v2h2Zm0 8.979v2h2v-2h-2Zm-4.453 0v-2h-2v2h2Zm0 9.052v2h2v-2h-2Zm-4.526 0v-2h-2v2h2Zm0 27.156v2h2v-2h-2Zm-5.329 0h-2v2h2v-2Zm0-29.156h-4.453v4h4.453v-4Zm-2.453 2v-9.052h-4v9.052h4Zm-2-11.052h-4.526v4h4.526v-4Zm-2.526 2v-8.98h-4v8.98h4Zm-2-10.98h-4.599v4h4.6v-4Zm-2.599 2V34.467h-4v14.308h4Zm-2-12.307h5.402v-4h-5.402v4Zm3.402-2V47.97h4V34.466h-4Zm2 15.505h4.453v-4h-4.453v4Zm2.453-2v9.052h4V47.97h-4Zm2 11.052h4.526v-4h-4.526v4Zm2.526-2v8.979h4v-8.98h-4Zm2 10.979h3.723v-4h-3.723v4Zm5.723-2v-8.98h-4v8.98h4Zm-2-6.98h4.526v-4h-4.526v4Zm6.526-2v-9.051h-4v9.052h4Zm-2-7.051h4.526v-4h-4.526v4Zm6.526-2V34.466h-4V47.97h4Zm-2-11.505h5.256v-4h-5.256v4Zm3.256-2v14.308h4V34.466h-4Zm2 12.308h-4.526v4h4.526v-4Zm-6.526 2v8.979h4v-8.98h-4Zm2 6.979h-4.453v4h4.453v-4Zm-6.453 2v9.052h4v-9.052h-4Zm2 7.052h-4.526v4h4.526v-4Zm-6.526 2V93.96h4V66.805h-4Zm2 25.156H99.08v4h5.329v-4Zm-3.329 2V66.805h-4V93.96h4Zm25.521-9.125h2v-2h-2v2Zm-4.599 0h-2v2h2v-2Zm0-9.782v-2h-2v2h2Zm5.402 0h2v-2h-2v2Zm0 9.052h-2v2h2v-2Zm4.453 0h2v-2h-2v2Zm0 4.453h-2v2h2v-2Zm12.775 0v2h2v-2h-2Zm0-4.453v-2h-2v2h2Zm4.526 0v2h2v-2h-2Zm0-12.775h2v-2h-2v2Zm-4.526 0h-2v2h2v-2Zm0-4.526h2v-2h-2v2Zm-13.505 0h-2v2h2v-2Zm0-4.526h2v-2h-2v2Zm-4.526 0h-2v2h2v-2Zm0-4.526h2v-2h-2v2Zm-4.599 0h-2v2h2v-2Zm0-14.308v-2h-2v2h2Zm4.599 0v2h2v-2h-2Zm0-4.526v-2h-2v2h2Zm4.526 0v2h2v-2h-2Zm0-4.453v-2h-2v2h2Zm14.308 0h2v-2h-2v2Zm0 4.453h-2v2h2v-2Zm4.453 0h2v-2h-2v2Zm0 4.526h-2v2h2v-2Zm4.526 0h2v-2h-2v2Zm0 9.855v2h2v-2h-2Zm-5.256 0h-2v2h2v-2Zm0-9.052h2v-2h-2v2Zm-4.526 0h-2v2h2v-2Zm0-4.526h2v-2h-2v2Zm-12.775 0v-2h-2v2h2Zm0 4.526v2h2v-2h-2Zm-4.453 0v-2h-2v2h2Zm0 12.775h-2v2h2v-2Zm4.453 0h2v-2h-2v2Zm0 4.453h-2v2h2v-2Zm13.578 0h2v-2h-2v2Zm0 4.526h-2v2h2v-2Zm4.453 0h2v-2h-2v2Zm0 4.526h-2v2h2v-2Zm4.526 0h2v-2h-2v2Zm0 14.308v2h2v-2h-2Zm-4.526 0v-2h-2v2h2Zm0 4.526v2h2v-2h-2Zm-4.453 0v-2h-2v2h2Zm0 4.599v2h2v-2h-2Zm-14.308 0h-2v2h2v-2Zm0-4.6h2v-2h-2v2Zm-4.526 0h-2v2h2v-2Zm0-6.525h-4.599v4h4.599v-4Zm-2.599 2v-9.782h-4v9.782h4Zm-2-7.782h5.402v-4h-5.402v4Zm3.402-2v9.052h4v-9.052h-4Zm2 11.052h4.453v-4h-4.453v4Zm2.453-2v4.453h4v-4.453h-4Zm2 6.453h12.775v-4h-12.775v4Zm14.775-2v-4.453h-4v4.453h4Zm-2-2.453h4.526v-4h-4.526v4Zm6.526-2V71.33h-4v12.775h4Zm-2-14.775h-4.526v4h4.526v-4Zm-2.526 2v-4.526h-4v4.526h4Zm-2-6.526h-13.505v4h13.505v-4Zm-11.505 2v-4.526h-4v4.526h4Zm-2-6.526h-4.526v4h4.526v-4Zm-2.526 2v-4.526h-4v4.526h4Zm-2-6.526h-4.599v4h4.599v-4Zm-2.599 2V43.445h-4v14.308h4Zm-2-12.308h4.599v-4h-4.599v4Zm6.599-2v-4.526h-4v4.526h4Zm-2-2.526h4.526v-4h-4.526v4Zm6.526-2v-4.453h-4v4.453h4Zm-2-2.453h14.308v-4h-14.308v4Zm12.308-2v4.453h4v-4.453h-4Zm2 6.453h4.453v-4h-4.453v4Zm2.453-2v4.526h4v-4.526h-4Zm2 6.526h4.526v-4h-4.526v4Zm2.526-2V53.3h4v-9.855h-4Zm2 7.855h-5.256v4h5.256v-4Zm-3.256 2v-9.052h-4V53.3h4Zm-2-11.052h-4.526v4h4.526v-4Zm-2.526 2v-4.526h-4v4.526h4Zm-2-6.526h-12.775v4h12.775v-4Zm-14.775 2v4.526h4v-4.526h-4Zm2 2.526h-4.453v4h4.453v-4Zm-6.453 2v12.775h4V44.248h-4Zm2 14.775h4.453v-4h-4.453v4Zm2.453-2v4.453h4v-4.453h-4Zm2 6.453h13.578v-4h-13.578v4Zm11.578-2v4.526h4v-4.526h-4Zm2 6.526h4.453v-4h-4.453v4Zm2.453-2v4.526h4v-4.526h-4Zm2 6.526h4.526v-4h-4.526v4Zm2.526-2v14.308h4V70.528h-4Zm2 12.308h-4.526v4h4.526v-4Zm-6.526 2v4.526h4v-4.526h-4Zm2 2.526h-4.453v4h4.453v-4Zm-6.453 2v4.599h4v-4.6h-4Zm2 2.599h-14.308v4h14.308v-4Zm-12.308 2v-4.6h-4v4.6h4Zm-2-6.6h-4.526v4h4.526v-4Zm-2.526 2v-4.525h-4v4.526h4Z" mask="url(#a)"/></svg>
