<svg xmlns="http://www.w3.org/2000/svg" viewBox="0 0 166 151"><path fill="#C81A54" d="M60.333 0H30.167v15.083H15.083v15.084H0v45.25h15.083V90.5h15.084v15.083H45.25v15.084h15.083v15.083h15.084v15.083H90.5V135.75h15.083v-15.083h15.084v-15.084h15.083V90.5h15.083V75.417h15.084v-45.25h-15.084V15.083H135.75V0h-30.167v15.083H90.5v15.084H75.417V15.083H60.333V0Zm0 15.083v15.084h15.084V45.25H90.5V30.167h15.083V15.083h30.167v15.084h15.083v45.25H135.75V90.5h-15.083v15.083h-15.084v15.084H90.5v15.083H75.417v-15.083H60.333v-15.084H45.25V90.5H30.167V75.417H15.083v-45.25h15.084V15.083h30.166Z"/></svg>
